<?xml version="1.0" encoding="utf-8"?>
<svg xmlns="http://www.w3.org/2000/svg" xmlns:xlink="http://www.w3.org/1999/xlink" width="600" height="400" viewBox="0 0 2400 1600">
<defs>
  <clipPath id="clip610">
    <rect x="0" y="0" width="2400" height="1600"/>
  </clipPath>
</defs>
<path clip-path="url(#clip610)" d="M0 1600 L2400 1600 L2400 8.88178e-14 L0 8.88178e-14  Z" fill="#ffffff" fill-rule="evenodd" fill-opacity="1"/>
<defs>
  <clipPath id="clip611">
    <rect x="202" y="123" width="2152" height="1301"/>
  </clipPath>
</defs>
<path clip-path="url(#clip610)" d="M219.38 1423.18 L2352.76 1423.18 L2352.76 123.472 L219.38 123.472  Z" fill="#ffffff" fill-rule="evenodd" fill-opacity="1"/>
<defs>
  <clipPath id="clip612">
    <rect x="219" y="123" width="2134" height="1301"/>
  </clipPath>
</defs>
<polyline clip-path="url(#clip612)" style="stroke:#000000; stroke-linecap:round; stroke-linejoin:round; stroke-width:2; stroke-opacity:0.1; fill:none" points="279.759,1423.18 279.759,123.472 "/>
<polyline clip-path="url(#clip612)" style="stroke:#000000; stroke-linecap:round; stroke-linejoin:round; stroke-width:2; stroke-opacity:0.1; fill:none" points="782.913,1423.18 782.913,123.472 "/>
<polyline clip-path="url(#clip612)" style="stroke:#000000; stroke-linecap:round; stroke-linejoin:round; stroke-width:2; stroke-opacity:0.1; fill:none" points="1286.07,1423.18 1286.07,123.472 "/>
<polyline clip-path="url(#clip612)" style="stroke:#000000; stroke-linecap:round; stroke-linejoin:round; stroke-width:2; stroke-opacity:0.1; fill:none" points="1789.22,1423.18 1789.22,123.472 "/>
<polyline clip-path="url(#clip612)" style="stroke:#000000; stroke-linecap:round; stroke-linejoin:round; stroke-width:2; stroke-opacity:0.1; fill:none" points="2292.38,1423.18 2292.38,123.472 "/>
<polyline clip-path="url(#clip612)" style="stroke:#000000; stroke-linecap:round; stroke-linejoin:round; stroke-width:2; stroke-opacity:0.1; fill:none" points="219.38,1386.4 2352.76,1386.4 "/>
<polyline clip-path="url(#clip612)" style="stroke:#000000; stroke-linecap:round; stroke-linejoin:round; stroke-width:2; stroke-opacity:0.1; fill:none" points="219.38,985.857 2352.76,985.857 "/>
<polyline clip-path="url(#clip612)" style="stroke:#000000; stroke-linecap:round; stroke-linejoin:round; stroke-width:2; stroke-opacity:0.1; fill:none" points="219.38,585.318 2352.76,585.318 "/>
<polyline clip-path="url(#clip612)" style="stroke:#000000; stroke-linecap:round; stroke-linejoin:round; stroke-width:2; stroke-opacity:0.1; fill:none" points="219.38,184.779 2352.76,184.779 "/>
<polyline clip-path="url(#clip610)" style="stroke:#000000; stroke-linecap:round; stroke-linejoin:round; stroke-width:4; stroke-opacity:1; fill:none" points="219.38,1423.18 2352.76,1423.18 "/>
<polyline clip-path="url(#clip610)" style="stroke:#000000; stroke-linecap:round; stroke-linejoin:round; stroke-width:4; stroke-opacity:1; fill:none" points="279.759,1423.18 279.759,1404.28 "/>
<polyline clip-path="url(#clip610)" style="stroke:#000000; stroke-linecap:round; stroke-linejoin:round; stroke-width:4; stroke-opacity:1; fill:none" points="782.913,1423.18 782.913,1404.28 "/>
<polyline clip-path="url(#clip610)" style="stroke:#000000; stroke-linecap:round; stroke-linejoin:round; stroke-width:4; stroke-opacity:1; fill:none" points="1286.07,1423.18 1286.07,1404.28 "/>
<polyline clip-path="url(#clip610)" style="stroke:#000000; stroke-linecap:round; stroke-linejoin:round; stroke-width:4; stroke-opacity:1; fill:none" points="1789.22,1423.18 1789.22,1404.28 "/>
<polyline clip-path="url(#clip610)" style="stroke:#000000; stroke-linecap:round; stroke-linejoin:round; stroke-width:4; stroke-opacity:1; fill:none" points="2292.38,1423.18 2292.38,1404.28 "/>
<path clip-path="url(#clip610)" d="M257.143 1454.1 Q253.532 1454.1 251.703 1457.66 Q249.898 1461.2 249.898 1468.33 Q249.898 1475.44 251.703 1479.01 Q253.532 1482.55 257.143 1482.55 Q260.777 1482.55 262.583 1479.01 Q264.412 1475.44 264.412 1468.33 Q264.412 1461.2 262.583 1457.66 Q260.777 1454.1 257.143 1454.1 M257.143 1450.39 Q262.953 1450.39 266.009 1455 Q269.087 1459.58 269.087 1468.33 Q269.087 1477.06 266.009 1481.67 Q262.953 1486.25 257.143 1486.25 Q251.333 1486.25 248.254 1481.67 Q245.199 1477.06 245.199 1468.33 Q245.199 1459.58 248.254 1455 Q251.333 1450.39 257.143 1450.39 Z" fill="#000000" fill-rule="nonzero" fill-opacity="1" /><path clip-path="url(#clip610)" d="M277.305 1479.7 L282.189 1479.7 L282.189 1485.58 L277.305 1485.58 L277.305 1479.7 Z" fill="#000000" fill-rule="nonzero" fill-opacity="1" /><path clip-path="url(#clip610)" d="M302.374 1454.1 Q298.763 1454.1 296.935 1457.66 Q295.129 1461.2 295.129 1468.33 Q295.129 1475.44 296.935 1479.01 Q298.763 1482.55 302.374 1482.55 Q306.009 1482.55 307.814 1479.01 Q309.643 1475.44 309.643 1468.33 Q309.643 1461.2 307.814 1457.66 Q306.009 1454.1 302.374 1454.1 M302.374 1450.39 Q308.184 1450.39 311.24 1455 Q314.319 1459.58 314.319 1468.33 Q314.319 1477.06 311.24 1481.67 Q308.184 1486.25 302.374 1486.25 Q296.564 1486.25 293.485 1481.67 Q290.43 1477.06 290.43 1468.33 Q290.43 1459.58 293.485 1455 Q296.564 1450.39 302.374 1450.39 Z" fill="#000000" fill-rule="nonzero" fill-opacity="1" /><path clip-path="url(#clip610)" d="M760.795 1454.1 Q757.184 1454.1 755.356 1457.66 Q753.55 1461.2 753.55 1468.33 Q753.55 1475.44 755.356 1479.01 Q757.184 1482.55 760.795 1482.55 Q764.43 1482.55 766.235 1479.01 Q768.064 1475.44 768.064 1468.33 Q768.064 1461.2 766.235 1457.66 Q764.43 1454.1 760.795 1454.1 M760.795 1450.39 Q766.606 1450.39 769.661 1455 Q772.74 1459.58 772.74 1468.33 Q772.74 1477.06 769.661 1481.67 Q766.606 1486.25 760.795 1486.25 Q754.985 1486.25 751.907 1481.67 Q748.851 1477.06 748.851 1468.33 Q748.851 1459.58 751.907 1455 Q754.985 1450.39 760.795 1450.39 Z" fill="#000000" fill-rule="nonzero" fill-opacity="1" /><path clip-path="url(#clip610)" d="M780.957 1479.7 L785.842 1479.7 L785.842 1485.58 L780.957 1485.58 L780.957 1479.7 Z" fill="#000000" fill-rule="nonzero" fill-opacity="1" /><path clip-path="url(#clip610)" d="M796.073 1451.02 L814.429 1451.02 L814.429 1454.96 L800.355 1454.96 L800.355 1463.43 Q801.374 1463.08 802.392 1462.92 Q803.411 1462.73 804.429 1462.73 Q810.216 1462.73 813.596 1465.9 Q816.976 1469.08 816.976 1474.49 Q816.976 1480.07 813.503 1483.17 Q810.031 1486.25 803.712 1486.25 Q801.536 1486.25 799.267 1485.88 Q797.022 1485.51 794.615 1484.77 L794.615 1480.07 Q796.698 1481.2 798.92 1481.76 Q801.142 1482.32 803.619 1482.32 Q807.624 1482.32 809.962 1480.21 Q812.3 1478.1 812.3 1474.49 Q812.3 1470.88 809.962 1468.77 Q807.624 1466.67 803.619 1466.67 Q801.744 1466.67 799.869 1467.08 Q798.017 1467.5 796.073 1468.38 L796.073 1451.02 Z" fill="#000000" fill-rule="nonzero" fill-opacity="1" /><path clip-path="url(#clip610)" d="M1253.22 1481.64 L1260.86 1481.64 L1260.86 1455.28 L1252.55 1456.95 L1252.55 1452.69 L1260.81 1451.02 L1265.49 1451.02 L1265.49 1481.64 L1273.13 1481.64 L1273.13 1485.58 L1253.22 1485.58 L1253.22 1481.64 Z" fill="#000000" fill-rule="nonzero" fill-opacity="1" /><path clip-path="url(#clip610)" d="M1282.57 1479.7 L1287.46 1479.7 L1287.46 1485.58 L1282.57 1485.58 L1282.57 1479.7 Z" fill="#000000" fill-rule="nonzero" fill-opacity="1" /><path clip-path="url(#clip610)" d="M1307.64 1454.1 Q1304.03 1454.1 1302.2 1457.66 Q1300.4 1461.2 1300.4 1468.33 Q1300.4 1475.44 1302.2 1479.01 Q1304.03 1482.55 1307.64 1482.55 Q1311.28 1482.55 1313.08 1479.01 Q1314.91 1475.44 1314.91 1468.33 Q1314.91 1461.2 1313.08 1457.66 Q1311.28 1454.1 1307.64 1454.1 M1307.64 1450.39 Q1313.45 1450.39 1316.51 1455 Q1319.59 1459.58 1319.59 1468.33 Q1319.59 1477.06 1316.51 1481.67 Q1313.45 1486.25 1307.64 1486.25 Q1301.83 1486.25 1298.75 1481.67 Q1295.7 1477.06 1295.7 1468.33 Q1295.7 1459.58 1298.75 1455 Q1301.83 1450.39 1307.64 1450.39 Z" fill="#000000" fill-rule="nonzero" fill-opacity="1" /><path clip-path="url(#clip610)" d="M1756.87 1481.64 L1764.51 1481.64 L1764.51 1455.28 L1756.2 1456.95 L1756.2 1452.69 L1764.47 1451.02 L1769.14 1451.02 L1769.14 1481.64 L1776.78 1481.64 L1776.78 1485.58 L1756.87 1485.58 L1756.87 1481.64 Z" fill="#000000" fill-rule="nonzero" fill-opacity="1" /><path clip-path="url(#clip610)" d="M1786.23 1479.7 L1791.11 1479.7 L1791.11 1485.58 L1786.23 1485.58 L1786.23 1479.7 Z" fill="#000000" fill-rule="nonzero" fill-opacity="1" /><path clip-path="url(#clip610)" d="M1801.34 1451.02 L1819.7 1451.02 L1819.7 1454.96 L1805.62 1454.96 L1805.62 1463.43 Q1806.64 1463.08 1807.66 1462.92 Q1808.68 1462.73 1809.7 1462.73 Q1815.48 1462.73 1818.86 1465.9 Q1822.24 1469.08 1822.24 1474.49 Q1822.24 1480.07 1818.77 1483.17 Q1815.3 1486.25 1808.98 1486.25 Q1806.8 1486.25 1804.54 1485.88 Q1802.29 1485.51 1799.88 1484.77 L1799.88 1480.07 Q1801.97 1481.2 1804.19 1481.76 Q1806.41 1482.32 1808.89 1482.32 Q1812.89 1482.32 1815.23 1480.21 Q1817.57 1478.1 1817.57 1474.49 Q1817.57 1470.88 1815.23 1468.77 Q1812.89 1466.67 1808.89 1466.67 Q1807.01 1466.67 1805.14 1467.08 Q1803.29 1467.5 1801.34 1468.38 L1801.34 1451.02 Z" fill="#000000" fill-rule="nonzero" fill-opacity="1" /><path clip-path="url(#clip610)" d="M2263.62 1481.64 L2279.94 1481.64 L2279.94 1485.58 L2257.99 1485.58 L2257.99 1481.64 Q2260.65 1478.89 2265.24 1474.26 Q2269.84 1469.61 2271.02 1468.27 Q2273.27 1465.74 2274.15 1464.01 Q2275.05 1462.25 2275.05 1460.56 Q2275.05 1457.8 2273.11 1456.07 Q2271.19 1454.33 2268.08 1454.33 Q2265.88 1454.33 2263.43 1455.09 Q2261 1455.86 2258.22 1457.41 L2258.22 1452.69 Q2261.05 1451.55 2263.5 1450.97 Q2265.95 1450.39 2267.99 1450.39 Q2273.36 1450.39 2276.56 1453.08 Q2279.75 1455.77 2279.75 1460.26 Q2279.75 1462.39 2278.94 1464.31 Q2278.15 1466.2 2276.05 1468.8 Q2275.47 1469.47 2272.37 1472.69 Q2269.26 1475.88 2263.62 1481.64 Z" fill="#000000" fill-rule="nonzero" fill-opacity="1" /><path clip-path="url(#clip610)" d="M2289.75 1479.7 L2294.63 1479.7 L2294.63 1485.58 L2289.75 1485.58 L2289.75 1479.7 Z" fill="#000000" fill-rule="nonzero" fill-opacity="1" /><path clip-path="url(#clip610)" d="M2314.82 1454.1 Q2311.21 1454.1 2309.38 1457.66 Q2307.57 1461.2 2307.57 1468.33 Q2307.57 1475.44 2309.38 1479.01 Q2311.21 1482.55 2314.82 1482.55 Q2318.45 1482.55 2320.26 1479.01 Q2322.09 1475.44 2322.09 1468.33 Q2322.09 1461.2 2320.26 1457.66 Q2318.45 1454.1 2314.82 1454.1 M2314.82 1450.39 Q2320.63 1450.39 2323.69 1455 Q2326.76 1459.58 2326.76 1468.33 Q2326.76 1477.06 2323.69 1481.67 Q2320.63 1486.25 2314.82 1486.25 Q2309.01 1486.25 2305.93 1481.67 Q2302.87 1477.06 2302.87 1468.33 Q2302.87 1459.58 2305.93 1455 Q2309.01 1450.39 2314.82 1450.39 Z" fill="#000000" fill-rule="nonzero" fill-opacity="1" /><path clip-path="url(#clip610)" d="M1129.04 1522.27 L1129.04 1532.4 L1141.1 1532.4 L1141.1 1536.95 L1129.04 1536.95 L1129.04 1556.3 Q1129.04 1560.66 1130.22 1561.9 Q1131.43 1563.14 1135.09 1563.14 L1141.1 1563.14 L1141.1 1568.04 L1135.09 1568.04 Q1128.31 1568.04 1125.73 1565.53 Q1123.15 1562.98 1123.15 1556.3 L1123.15 1536.95 L1118.86 1536.95 L1118.86 1532.4 L1123.15 1532.4 L1123.15 1522.27 L1129.04 1522.27 Z" fill="#000000" fill-rule="nonzero" fill-opacity="1" /><path clip-path="url(#clip610)" d="M1148.81 1532.4 L1154.66 1532.4 L1154.66 1568.04 L1148.81 1568.04 L1148.81 1532.4 M1148.81 1518.52 L1154.66 1518.52 L1154.66 1525.93 L1148.81 1525.93 L1148.81 1518.52 Z" fill="#000000" fill-rule="nonzero" fill-opacity="1" /><path clip-path="url(#clip610)" d="M1194.67 1539.24 Q1196.87 1535.29 1199.92 1533.41 Q1202.98 1531.54 1207.12 1531.54 Q1212.69 1531.54 1215.71 1535.45 Q1218.73 1539.33 1218.73 1546.53 L1218.73 1568.04 L1212.85 1568.04 L1212.85 1546.72 Q1212.85 1541.59 1211.03 1539.11 Q1209.22 1536.63 1205.49 1536.63 Q1200.94 1536.63 1198.3 1539.65 Q1195.66 1542.68 1195.66 1547.9 L1195.66 1568.04 L1189.77 1568.04 L1189.77 1546.72 Q1189.77 1541.56 1187.96 1539.11 Q1186.14 1536.63 1182.35 1536.63 Q1177.87 1536.63 1175.23 1539.68 Q1172.58 1542.71 1172.58 1547.9 L1172.58 1568.04 L1166.7 1568.04 L1166.7 1532.4 L1172.58 1532.4 L1172.58 1537.93 Q1174.59 1534.66 1177.39 1533.1 Q1180.19 1531.54 1184.04 1531.54 Q1187.92 1531.54 1190.63 1533.51 Q1193.37 1535.48 1194.67 1539.24 Z" fill="#000000" fill-rule="nonzero" fill-opacity="1" /><path clip-path="url(#clip610)" d="M1260.91 1548.76 L1260.91 1551.62 L1233.98 1551.62 Q1234.36 1557.67 1237.61 1560.85 Q1240.89 1564 1246.71 1564 Q1250.09 1564 1253.24 1563.17 Q1256.42 1562.35 1259.54 1560.69 L1259.54 1566.23 Q1256.39 1567.57 1253.08 1568.27 Q1249.77 1568.97 1246.36 1568.97 Q1237.83 1568.97 1232.83 1564 Q1227.87 1559.04 1227.87 1550.57 Q1227.87 1541.82 1232.58 1536.69 Q1237.32 1531.54 1245.34 1531.54 Q1252.54 1531.54 1256.71 1536.18 Q1260.91 1540.8 1260.91 1548.76 M1255.05 1547.04 Q1254.99 1542.23 1252.35 1539.37 Q1249.74 1536.5 1245.41 1536.5 Q1240.51 1536.5 1237.55 1539.27 Q1234.62 1542.04 1234.17 1547.07 L1255.05 1547.04 Z" fill="#000000" fill-rule="nonzero" fill-opacity="1" /><path clip-path="url(#clip610)" d="M1305.31 1518.58 Q1301.04 1525.9 1298.97 1533.06 Q1296.91 1540.23 1296.91 1547.58 Q1296.91 1554.93 1298.97 1562.16 Q1301.08 1569.35 1305.31 1576.64 L1300.22 1576.64 Q1295.44 1569.16 1293.05 1561.93 Q1290.7 1554.71 1290.7 1547.58 Q1290.7 1540.48 1293.05 1533.29 Q1295.41 1526.09 1300.22 1518.58 L1305.31 1518.58 Z" fill="#000000" fill-rule="nonzero" fill-opacity="1" /><path clip-path="url(#clip610)" d="M1344.43 1539.24 Q1346.62 1535.29 1349.68 1533.41 Q1352.73 1531.54 1356.87 1531.54 Q1362.44 1531.54 1365.46 1535.45 Q1368.49 1539.33 1368.49 1546.53 L1368.49 1568.04 L1362.6 1568.04 L1362.6 1546.72 Q1362.6 1541.59 1360.79 1539.11 Q1358.97 1536.63 1355.25 1536.63 Q1350.7 1536.63 1348.05 1539.65 Q1345.41 1542.68 1345.41 1547.9 L1345.41 1568.04 L1339.52 1568.04 L1339.52 1546.72 Q1339.52 1541.56 1337.71 1539.11 Q1335.9 1536.63 1332.11 1536.63 Q1327.62 1536.63 1324.98 1539.68 Q1322.34 1542.71 1322.34 1547.9 L1322.34 1568.04 L1316.45 1568.04 L1316.45 1532.4 L1322.34 1532.4 L1322.34 1537.93 Q1324.34 1534.66 1327.14 1533.1 Q1329.94 1531.54 1333.79 1531.54 Q1337.68 1531.54 1340.38 1533.51 Q1343.12 1535.48 1344.43 1539.24 Z" fill="#000000" fill-rule="nonzero" fill-opacity="1" /><path clip-path="url(#clip610)" d="M1380.17 1532.4 L1386.03 1532.4 L1386.03 1568.04 L1380.17 1568.04 L1380.17 1532.4 M1380.17 1518.52 L1386.03 1518.52 L1386.03 1525.93 L1380.17 1525.93 L1380.17 1518.52 Z" fill="#000000" fill-rule="nonzero" fill-opacity="1" /><path clip-path="url(#clip610)" d="M1427.91 1546.53 L1427.91 1568.04 L1422.06 1568.04 L1422.06 1546.72 Q1422.06 1541.66 1420.08 1539.14 Q1418.11 1536.63 1414.16 1536.63 Q1409.42 1536.63 1406.68 1539.65 Q1403.95 1542.68 1403.95 1547.9 L1403.95 1568.04 L1398.06 1568.04 L1398.06 1532.4 L1403.95 1532.4 L1403.95 1537.93 Q1406.05 1534.72 1408.88 1533.13 Q1411.74 1531.54 1415.47 1531.54 Q1421.61 1531.54 1424.76 1535.36 Q1427.91 1539.14 1427.91 1546.53 Z" fill="#000000" fill-rule="nonzero" fill-opacity="1" /><path clip-path="url(#clip610)" d="M1438.67 1518.58 L1443.76 1518.58 Q1448.54 1526.09 1450.89 1533.29 Q1453.28 1540.48 1453.28 1547.58 Q1453.28 1554.71 1450.89 1561.93 Q1448.54 1569.16 1443.76 1576.64 L1438.67 1576.64 Q1442.9 1569.35 1444.97 1562.16 Q1447.07 1554.93 1447.07 1547.58 Q1447.07 1540.23 1444.97 1533.06 Q1442.9 1525.9 1438.67 1518.58 Z" fill="#000000" fill-rule="nonzero" fill-opacity="1" /><polyline clip-path="url(#clip610)" style="stroke:#000000; stroke-linecap:round; stroke-linejoin:round; stroke-width:4; stroke-opacity:1; fill:none" points="219.38,1423.18 219.38,123.472 "/>
<polyline clip-path="url(#clip610)" style="stroke:#000000; stroke-linecap:round; stroke-linejoin:round; stroke-width:4; stroke-opacity:1; fill:none" points="219.38,1386.4 238.278,1386.4 "/>
<polyline clip-path="url(#clip610)" style="stroke:#000000; stroke-linecap:round; stroke-linejoin:round; stroke-width:4; stroke-opacity:1; fill:none" points="219.38,985.857 238.278,985.857 "/>
<polyline clip-path="url(#clip610)" style="stroke:#000000; stroke-linecap:round; stroke-linejoin:round; stroke-width:4; stroke-opacity:1; fill:none" points="219.38,585.318 238.278,585.318 "/>
<polyline clip-path="url(#clip610)" style="stroke:#000000; stroke-linecap:round; stroke-linejoin:round; stroke-width:4; stroke-opacity:1; fill:none" points="219.38,184.779 238.278,184.779 "/>
<path clip-path="url(#clip610)" d="M126.205 1372.19 Q122.593 1372.19 120.765 1375.76 Q118.959 1379.3 118.959 1386.43 Q118.959 1393.54 120.765 1397.1 Q122.593 1400.64 126.205 1400.64 Q129.839 1400.64 131.644 1397.1 Q133.473 1393.54 133.473 1386.43 Q133.473 1379.3 131.644 1375.76 Q129.839 1372.19 126.205 1372.19 M126.205 1368.49 Q132.015 1368.49 135.07 1373.1 Q138.149 1377.68 138.149 1386.43 Q138.149 1395.16 135.07 1399.76 Q132.015 1404.35 126.205 1404.35 Q120.394 1404.35 117.316 1399.76 Q114.26 1395.16 114.26 1386.43 Q114.26 1377.68 117.316 1373.1 Q120.394 1368.49 126.205 1368.49 Z" fill="#000000" fill-rule="nonzero" fill-opacity="1" /><path clip-path="url(#clip610)" d="M146.366 1397.8 L151.251 1397.8 L151.251 1403.68 L146.366 1403.68 L146.366 1397.8 Z" fill="#000000" fill-rule="nonzero" fill-opacity="1" /><path clip-path="url(#clip610)" d="M171.436 1372.19 Q167.825 1372.19 165.996 1375.76 Q164.19 1379.3 164.19 1386.43 Q164.19 1393.54 165.996 1397.1 Q167.825 1400.64 171.436 1400.64 Q175.07 1400.64 176.876 1397.1 Q178.704 1393.54 178.704 1386.43 Q178.704 1379.3 176.876 1375.76 Q175.07 1372.19 171.436 1372.19 M171.436 1368.49 Q177.246 1368.49 180.301 1373.1 Q183.38 1377.68 183.38 1386.43 Q183.38 1395.16 180.301 1399.76 Q177.246 1404.35 171.436 1404.35 Q165.626 1404.35 162.547 1399.76 Q159.491 1395.16 159.491 1386.43 Q159.491 1377.68 162.547 1373.1 Q165.626 1368.49 171.436 1368.49 Z" fill="#000000" fill-rule="nonzero" fill-opacity="1" /><path clip-path="url(#clip610)" d="M127.2 971.655 Q123.589 971.655 121.76 975.22 Q119.955 978.762 119.955 985.892 Q119.955 992.998 121.76 996.563 Q123.589 1000.1 127.2 1000.1 Q130.834 1000.1 132.64 996.563 Q134.468 992.998 134.468 985.892 Q134.468 978.762 132.64 975.22 Q130.834 971.655 127.2 971.655 M127.2 967.952 Q133.01 967.952 136.066 972.558 Q139.144 977.142 139.144 985.892 Q139.144 994.618 136.066 999.225 Q133.01 1003.81 127.2 1003.81 Q121.39 1003.81 118.311 999.225 Q115.256 994.618 115.256 985.892 Q115.256 977.142 118.311 972.558 Q121.39 967.952 127.2 967.952 Z" fill="#000000" fill-rule="nonzero" fill-opacity="1" /><path clip-path="url(#clip610)" d="M147.362 997.257 L152.246 997.257 L152.246 1003.14 L147.362 1003.14 L147.362 997.257 Z" fill="#000000" fill-rule="nonzero" fill-opacity="1" /><path clip-path="url(#clip610)" d="M162.477 968.577 L180.834 968.577 L180.834 972.512 L166.76 972.512 L166.76 980.984 Q167.778 980.637 168.797 980.475 Q169.815 980.29 170.834 980.29 Q176.621 980.29 180.001 983.461 Q183.38 986.632 183.38 992.049 Q183.38 997.628 179.908 1000.73 Q176.436 1003.81 170.116 1003.81 Q167.94 1003.81 165.672 1003.44 Q163.427 1003.07 161.019 1002.33 L161.019 997.628 Q163.102 998.762 165.325 999.317 Q167.547 999.873 170.024 999.873 Q174.028 999.873 176.366 997.766 Q178.704 995.66 178.704 992.049 Q178.704 988.438 176.366 986.331 Q174.028 984.225 170.024 984.225 Q168.149 984.225 166.274 984.642 Q164.422 985.058 162.477 985.938 L162.477 968.577 Z" fill="#000000" fill-rule="nonzero" fill-opacity="1" /><path clip-path="url(#clip610)" d="M117.015 598.663 L124.654 598.663 L124.654 572.297 L116.343 573.964 L116.343 569.705 L124.607 568.038 L129.283 568.038 L129.283 598.663 L136.922 598.663 L136.922 602.598 L117.015 602.598 L117.015 598.663 Z" fill="#000000" fill-rule="nonzero" fill-opacity="1" /><path clip-path="url(#clip610)" d="M146.366 596.718 L151.251 596.718 L151.251 602.598 L146.366 602.598 L146.366 596.718 Z" fill="#000000" fill-rule="nonzero" fill-opacity="1" /><path clip-path="url(#clip610)" d="M171.436 571.117 Q167.825 571.117 165.996 574.681 Q164.19 578.223 164.19 585.353 Q164.19 592.459 165.996 596.024 Q167.825 599.566 171.436 599.566 Q175.07 599.566 176.876 596.024 Q178.704 592.459 178.704 585.353 Q178.704 578.223 176.876 574.681 Q175.07 571.117 171.436 571.117 M171.436 567.413 Q177.246 567.413 180.301 572.019 Q183.38 576.603 183.38 585.353 Q183.38 594.079 180.301 598.686 Q177.246 603.269 171.436 603.269 Q165.626 603.269 162.547 598.686 Q159.491 594.079 159.491 585.353 Q159.491 576.603 162.547 572.019 Q165.626 567.413 171.436 567.413 Z" fill="#000000" fill-rule="nonzero" fill-opacity="1" /><path clip-path="url(#clip610)" d="M118.01 198.124 L125.649 198.124 L125.649 171.758 L117.339 173.425 L117.339 169.166 L125.603 167.499 L130.279 167.499 L130.279 198.124 L137.917 198.124 L137.917 202.059 L118.01 202.059 L118.01 198.124 Z" fill="#000000" fill-rule="nonzero" fill-opacity="1" /><path clip-path="url(#clip610)" d="M147.362 196.179 L152.246 196.179 L152.246 202.059 L147.362 202.059 L147.362 196.179 Z" fill="#000000" fill-rule="nonzero" fill-opacity="1" /><path clip-path="url(#clip610)" d="M162.477 167.499 L180.834 167.499 L180.834 171.434 L166.76 171.434 L166.76 179.906 Q167.778 179.559 168.797 179.397 Q169.815 179.212 170.834 179.212 Q176.621 179.212 180.001 182.383 Q183.38 185.555 183.38 190.971 Q183.38 196.55 179.908 199.652 Q176.436 202.73 170.116 202.73 Q167.94 202.73 165.672 202.36 Q163.427 201.99 161.019 201.249 L161.019 196.55 Q163.102 197.684 165.325 198.24 Q167.547 198.795 170.024 198.795 Q174.028 198.795 176.366 196.689 Q178.704 194.582 178.704 190.971 Q178.704 187.36 176.366 185.254 Q174.028 183.147 170.024 183.147 Q168.149 183.147 166.274 183.564 Q164.422 183.98 162.477 184.86 L162.477 167.499 Z" fill="#000000" fill-rule="nonzero" fill-opacity="1" /><path clip-path="url(#clip610)" d="M14.479 820.4 L14.479 814.512 L43.7294 814.512 L28.3562 797.038 L28.3562 789.559 L45.0344 808.465 L64.0042 788.763 L64.0042 796.402 L46.5939 814.512 L64.0042 814.512 L64.0042 820.4 L14.479 820.4 Z" fill="#000000" fill-rule="nonzero" fill-opacity="1" /><path clip-path="url(#clip610)" d="M16.4842 786.408 L16.4842 779.914 L56.6518 769.92 L16.4842 759.958 L16.4842 752.733 L56.6518 742.739 L16.4842 732.776 L16.4842 726.252 L64.0042 738.187 L64.0042 746.272 L22.7544 756.298 L64.0042 766.419 L64.0042 774.504 L16.4842 786.408 Z" fill="#000000" fill-rule="nonzero" fill-opacity="1" /><path clip-path="url(#clip610)" d="M613.537 18.8205 L613.537 41.5461 L623.826 41.5461 Q629.538 41.5461 632.657 38.5889 Q635.776 35.6318 635.776 30.163 Q635.776 24.7348 632.657 21.7777 Q629.538 18.8205 623.826 18.8205 L613.537 18.8205 M605.354 12.096 L623.826 12.096 Q633.994 12.096 639.179 16.714 Q644.405 21.2916 644.405 30.163 Q644.405 39.1155 639.179 43.6931 Q633.994 48.2706 623.826 48.2706 L613.537 48.2706 L613.537 72.576 L605.354 72.576 L605.354 12.096 Z" fill="#000000" fill-rule="nonzero" fill-opacity="1" /><path clip-path="url(#clip610)" d="M690.909 48.0275 L690.909 51.6733 L656.639 51.6733 Q657.125 59.3701 661.257 63.421 Q665.429 67.4314 672.842 67.4314 Q677.136 67.4314 681.147 66.3781 Q685.197 65.3249 689.167 63.2184 L689.167 70.267 Q685.157 71.9684 680.944 72.8596 Q676.731 73.7508 672.397 73.7508 Q661.54 73.7508 655.18 67.4314 Q648.861 61.1119 648.861 50.3365 Q648.861 39.1965 654.856 32.6746 Q660.892 26.1121 671.1 26.1121 Q680.255 26.1121 685.562 32.0264 Q690.909 37.9003 690.909 48.0275 M683.456 45.84 Q683.375 39.7232 680.012 36.0774 Q676.691 32.4315 671.181 32.4315 Q664.943 32.4315 661.176 35.9558 Q657.449 39.4801 656.882 45.8805 L683.456 45.84 Z" fill="#000000" fill-rule="nonzero" fill-opacity="1" /><path clip-path="url(#clip610)" d="M740.857 45.1919 L740.857 72.576 L733.403 72.576 L733.403 45.4349 Q733.403 38.994 730.892 35.7938 Q728.38 32.5936 723.357 32.5936 Q717.321 32.5936 713.837 36.4419 Q710.354 40.2903 710.354 46.9338 L710.354 72.576 L702.859 72.576 L702.859 27.2059 L710.354 27.2059 L710.354 34.2544 Q713.027 30.163 716.632 28.1376 Q720.278 26.1121 725.018 26.1121 Q732.836 26.1121 736.846 30.9732 Q740.857 35.7938 740.857 45.1919 Z" fill="#000000" fill-rule="nonzero" fill-opacity="1" /><path clip-path="url(#clip610)" d="M785.579 34.0924 L785.579 9.54393 L793.032 9.54393 L793.032 72.576 L785.579 72.576 L785.579 65.7705 Q783.229 69.8214 779.624 71.8063 Q776.059 73.7508 771.036 73.7508 Q762.813 73.7508 757.628 67.1883 Q752.483 60.6258 752.483 49.9314 Q752.483 39.2371 757.628 32.6746 Q762.813 26.1121 771.036 26.1121 Q776.059 26.1121 779.624 28.0971 Q783.229 30.0415 785.579 34.0924 M760.18 49.9314 Q760.18 58.1548 763.542 62.8538 Q766.945 67.5124 772.859 67.5124 Q778.773 67.5124 782.176 62.8538 Q785.579 58.1548 785.579 49.9314 Q785.579 41.7081 782.176 37.0496 Q778.773 32.3505 772.859 32.3505 Q766.945 32.3505 763.542 37.0496 Q760.18 41.7081 760.18 49.9314 Z" fill="#000000" fill-rule="nonzero" fill-opacity="1" /><path clip-path="url(#clip610)" d="M807.616 54.671 L807.616 27.2059 L815.069 27.2059 L815.069 54.3874 Q815.069 60.8284 817.581 64.0691 Q820.093 67.2693 825.116 67.2693 Q831.151 67.2693 834.635 63.421 Q838.16 59.5726 838.16 52.9291 L838.16 27.2059 L845.613 27.2059 L845.613 72.576 L838.16 72.576 L838.16 65.6084 Q835.445 69.7404 831.84 71.7658 Q828.275 73.7508 823.536 73.7508 Q815.718 73.7508 811.667 68.8897 Q807.616 64.0286 807.616 54.671 M826.371 26.1121 L826.371 26.1121 Z" fill="#000000" fill-rule="nonzero" fill-opacity="1" /><path clip-path="url(#clip610)" d="M860.966 9.54393 L868.42 9.54393 L868.42 72.576 L860.966 72.576 L860.966 9.54393 Z" fill="#000000" fill-rule="nonzero" fill-opacity="1" /><path clip-path="url(#clip610)" d="M883.246 54.671 L883.246 27.2059 L890.7 27.2059 L890.7 54.3874 Q890.7 60.8284 893.211 64.0691 Q895.723 67.2693 900.746 67.2693 Q906.782 67.2693 910.266 63.421 Q913.79 59.5726 913.79 52.9291 L913.79 27.2059 L921.244 27.2059 L921.244 72.576 L913.79 72.576 L913.79 65.6084 Q911.076 69.7404 907.471 71.7658 Q903.906 73.7508 899.166 73.7508 Q891.348 73.7508 887.297 68.8897 Q883.246 64.0286 883.246 54.671 M902.002 26.1121 L902.002 26.1121 Z" fill="#000000" fill-rule="nonzero" fill-opacity="1" /><path clip-path="url(#clip610)" d="M971.92 35.9153 Q974.716 30.8922 978.604 28.5022 Q982.493 26.1121 987.759 26.1121 Q994.849 26.1121 998.697 31.0947 Q1002.55 36.0368 1002.55 45.1919 L1002.55 72.576 L995.051 72.576 L995.051 45.4349 Q995.051 38.913 992.742 35.7533 Q990.433 32.5936 985.693 32.5936 Q979.901 32.5936 976.538 36.4419 Q973.176 40.2903 973.176 46.9338 L973.176 72.576 L965.682 72.576 L965.682 45.4349 Q965.682 38.8725 963.373 35.7533 Q961.064 32.5936 956.243 32.5936 Q950.532 32.5936 947.169 36.4824 Q943.807 40.3308 943.807 46.9338 L943.807 72.576 L936.313 72.576 L936.313 27.2059 L943.807 27.2059 L943.807 34.2544 Q946.359 30.082 949.924 28.0971 Q953.489 26.1121 958.39 26.1121 Q963.332 26.1121 966.776 28.6237 Q970.26 31.1352 971.92 35.9153 Z" fill="#000000" fill-rule="nonzero" fill-opacity="1" /><path clip-path="url(#clip610)" d="M1051.16 14.324 L1051.16 27.2059 L1066.51 27.2059 L1066.51 32.9987 L1051.16 32.9987 L1051.16 57.6282 Q1051.16 63.1779 1052.65 64.7578 Q1054.19 66.3376 1058.85 66.3376 L1066.51 66.3376 L1066.51 72.576 L1058.85 72.576 Q1050.22 72.576 1046.94 69.3758 Q1043.66 66.1351 1043.66 57.6282 L1043.66 32.9987 L1038.19 32.9987 L1038.19 27.2059 L1043.66 27.2059 L1043.66 14.324 L1051.16 14.324 Z" fill="#000000" fill-rule="nonzero" fill-opacity="1" /><path clip-path="url(#clip610)" d="M1075.54 54.671 L1075.54 27.2059 L1083 27.2059 L1083 54.3874 Q1083 60.8284 1085.51 64.0691 Q1088.02 67.2693 1093.04 67.2693 Q1099.08 67.2693 1102.56 63.421 Q1106.09 59.5726 1106.09 52.9291 L1106.09 27.2059 L1113.54 27.2059 L1113.54 72.576 L1106.09 72.576 L1106.09 65.6084 Q1103.37 69.7404 1099.77 71.7658 Q1096.2 73.7508 1091.46 73.7508 Q1083.64 73.7508 1079.59 68.8897 Q1075.54 64.0286 1075.54 54.671 M1094.3 26.1121 L1094.3 26.1121 Z" fill="#000000" fill-rule="nonzero" fill-opacity="1" /><path clip-path="url(#clip610)" d="M1136.27 14.324 L1136.27 27.2059 L1151.62 27.2059 L1151.62 32.9987 L1136.27 32.9987 L1136.27 57.6282 Q1136.27 63.1779 1137.76 64.7578 Q1139.3 66.3376 1143.96 66.3376 L1151.62 66.3376 L1151.62 72.576 L1143.96 72.576 Q1135.33 72.576 1132.05 69.3758 Q1128.77 66.1351 1128.77 57.6282 L1128.77 32.9987 L1123.3 32.9987 L1123.3 27.2059 L1128.77 27.2059 L1128.77 14.324 L1136.27 14.324 Z" fill="#000000" fill-rule="nonzero" fill-opacity="1" /><path clip-path="url(#clip610)" d="M1179 32.4315 Q1173.01 32.4315 1169.52 37.1306 Q1166.04 41.7891 1166.04 49.9314 Q1166.04 58.0738 1169.48 62.7728 Q1172.97 67.4314 1179 67.4314 Q1184.96 67.4314 1188.44 62.7323 Q1191.93 58.0333 1191.93 49.9314 Q1191.93 41.8701 1188.44 37.1711 Q1184.96 32.4315 1179 32.4315 M1179 26.1121 Q1188.72 26.1121 1194.27 32.4315 Q1199.82 38.7509 1199.82 49.9314 Q1199.82 61.0714 1194.27 67.4314 Q1188.72 73.7508 1179 73.7508 Q1169.24 73.7508 1163.69 67.4314 Q1158.18 61.0714 1158.18 49.9314 Q1158.18 38.7509 1163.69 32.4315 Q1169.24 26.1121 1179 26.1121 Z" fill="#000000" fill-rule="nonzero" fill-opacity="1" /><path clip-path="url(#clip610)" d="M1238.47 34.1734 Q1237.21 33.4443 1235.72 33.1202 Q1234.26 32.7556 1232.47 32.7556 Q1226.16 32.7556 1222.75 36.8875 Q1219.39 40.9789 1219.39 48.6757 L1219.39 72.576 L1211.9 72.576 L1211.9 27.2059 L1219.39 27.2059 L1219.39 34.2544 Q1221.74 30.1225 1225.51 28.1376 Q1229.27 26.1121 1234.66 26.1121 Q1235.43 26.1121 1236.36 26.2337 Q1237.3 26.3147 1238.43 26.5172 L1238.47 34.1734 Z" fill="#000000" fill-rule="nonzero" fill-opacity="1" /><path clip-path="url(#clip610)" d="M1246.29 27.2059 L1253.74 27.2059 L1253.74 72.576 L1246.29 72.576 L1246.29 27.2059 M1246.29 9.54393 L1253.74 9.54393 L1253.74 18.9825 L1246.29 18.9825 L1246.29 9.54393 Z" fill="#000000" fill-rule="nonzero" fill-opacity="1" /><path clip-path="url(#clip610)" d="M1289.96 49.7694 Q1280.92 49.7694 1277.44 51.8354 Q1273.96 53.9013 1273.96 58.8839 Q1273.96 62.8538 1276.55 65.2034 Q1279.18 67.5124 1283.68 67.5124 Q1289.88 67.5124 1293.6 63.1374 Q1297.37 58.7219 1297.37 51.4303 L1297.37 49.7694 L1289.96 49.7694 M1304.82 46.6907 L1304.82 72.576 L1297.37 72.576 L1297.37 65.6895 Q1294.82 69.8214 1291.01 71.8063 Q1287.2 73.7508 1281.69 73.7508 Q1274.73 73.7508 1270.59 69.8619 Q1266.5 65.9325 1266.5 59.3701 Q1266.5 51.7138 1271.61 47.825 Q1276.75 43.9361 1286.92 43.9361 L1297.37 43.9361 L1297.37 43.2069 Q1297.37 38.0623 1293.97 35.2672 Q1290.61 32.4315 1284.49 32.4315 Q1280.6 32.4315 1276.91 33.3632 Q1273.23 34.295 1269.82 36.1584 L1269.82 29.2718 Q1273.92 27.692 1277.76 26.9223 Q1281.61 26.1121 1285.26 26.1121 Q1295.1 26.1121 1299.96 31.2163 Q1304.82 36.3204 1304.82 46.6907 Z" fill="#000000" fill-rule="nonzero" fill-opacity="1" /><path clip-path="url(#clip610)" d="M1320.18 9.54393 L1327.63 9.54393 L1327.63 72.576 L1320.18 72.576 L1320.18 9.54393 Z" fill="#000000" fill-rule="nonzero" fill-opacity="1" /><path clip-path="url(#clip610)" d="M1376.81 65.7705 L1376.81 89.8329 L1369.31 89.8329 L1369.31 27.2059 L1376.81 27.2059 L1376.81 34.0924 Q1379.16 30.0415 1382.72 28.0971 Q1386.33 26.1121 1391.31 26.1121 Q1399.57 26.1121 1404.72 32.6746 Q1409.9 39.2371 1409.9 49.9314 Q1409.9 60.6258 1404.72 67.1883 Q1399.57 73.7508 1391.31 73.7508 Q1386.33 73.7508 1382.72 71.8063 Q1379.16 69.8214 1376.81 65.7705 M1402.17 49.9314 Q1402.17 41.7081 1398.76 37.0496 Q1395.4 32.3505 1389.49 32.3505 Q1383.57 32.3505 1380.17 37.0496 Q1376.81 41.7081 1376.81 49.9314 Q1376.81 58.1548 1380.17 62.8538 Q1383.57 67.5124 1389.49 67.5124 Q1395.4 67.5124 1398.76 62.8538 Q1402.17 58.1548 1402.17 49.9314 Z" fill="#000000" fill-rule="nonzero" fill-opacity="1" /><path clip-path="url(#clip610)" d="M1439.84 32.4315 Q1433.85 32.4315 1430.36 37.1306 Q1426.88 41.7891 1426.88 49.9314 Q1426.88 58.0738 1430.32 62.7728 Q1433.8 67.4314 1439.84 67.4314 Q1445.8 67.4314 1449.28 62.7323 Q1452.76 58.0333 1452.76 49.9314 Q1452.76 41.8701 1449.28 37.1711 Q1445.8 32.4315 1439.84 32.4315 M1439.84 26.1121 Q1449.56 26.1121 1455.11 32.4315 Q1460.66 38.7509 1460.66 49.9314 Q1460.66 61.0714 1455.11 67.4314 Q1449.56 73.7508 1439.84 73.7508 Q1430.08 73.7508 1424.53 67.4314 Q1419.02 61.0714 1419.02 49.9314 Q1419.02 38.7509 1424.53 32.4315 Q1430.08 26.1121 1439.84 26.1121 Z" fill="#000000" fill-rule="nonzero" fill-opacity="1" /><path clip-path="url(#clip610)" d="M1468.68 27.2059 L1476.14 27.2059 L1485.45 62.6108 L1494.73 27.2059 L1503.52 27.2059 L1512.84 62.6108 L1522.11 27.2059 L1529.57 27.2059 L1517.7 72.576 L1508.91 72.576 L1499.15 35.3887 L1489.34 72.576 L1480.55 72.576 L1468.68 27.2059 Z" fill="#000000" fill-rule="nonzero" fill-opacity="1" /><path clip-path="url(#clip610)" d="M1579.68 48.0275 L1579.68 51.6733 L1545.41 51.6733 Q1545.89 59.3701 1550.02 63.421 Q1554.2 67.4314 1561.61 67.4314 Q1565.9 67.4314 1569.91 66.3781 Q1573.97 65.3249 1577.94 63.2184 L1577.94 70.267 Q1573.93 71.9684 1569.71 72.8596 Q1565.5 73.7508 1561.16 73.7508 Q1550.31 73.7508 1543.95 67.4314 Q1537.63 61.1119 1537.63 50.3365 Q1537.63 39.1965 1543.62 32.6746 Q1549.66 26.1121 1559.87 26.1121 Q1569.02 26.1121 1574.33 32.0264 Q1579.68 37.9003 1579.68 48.0275 M1572.22 45.84 Q1572.14 39.7232 1568.78 36.0774 Q1565.46 32.4315 1559.95 32.4315 Q1553.71 32.4315 1549.94 35.9558 Q1546.22 39.4801 1545.65 45.8805 L1572.22 45.84 Z" fill="#000000" fill-rule="nonzero" fill-opacity="1" /><path clip-path="url(#clip610)" d="M1618.2 34.1734 Q1616.95 33.4443 1615.45 33.1202 Q1613.99 32.7556 1612.21 32.7556 Q1605.89 32.7556 1602.48 36.8875 Q1599.12 40.9789 1599.12 48.6757 L1599.12 72.576 L1591.63 72.576 L1591.63 27.2059 L1599.12 27.2059 L1599.12 34.2544 Q1601.47 30.1225 1605.24 28.1376 Q1609.01 26.1121 1614.39 26.1121 Q1615.16 26.1121 1616.1 26.2337 Q1617.03 26.3147 1618.16 26.5172 L1618.2 34.1734 Z" fill="#000000" fill-rule="nonzero" fill-opacity="1" /><path clip-path="url(#clip610)" d="M1684.96 49.9314 Q1684.96 41.7081 1681.56 37.0496 Q1678.2 32.3505 1672.28 32.3505 Q1666.37 32.3505 1662.96 37.0496 Q1659.6 41.7081 1659.6 49.9314 Q1659.6 58.1548 1662.96 62.8538 Q1666.37 67.5124 1672.28 67.5124 Q1678.2 67.5124 1681.56 62.8538 Q1684.96 58.1548 1684.96 49.9314 M1659.6 34.0924 Q1661.95 30.0415 1665.52 28.0971 Q1669.12 26.1121 1674.1 26.1121 Q1682.37 26.1121 1687.51 32.6746 Q1692.7 39.2371 1692.7 49.9314 Q1692.7 60.6258 1687.51 67.1883 Q1682.37 73.7508 1674.1 73.7508 Q1669.12 73.7508 1665.52 71.8063 Q1661.95 69.8214 1659.6 65.7705 L1659.6 72.576 L1652.11 72.576 L1652.11 9.54393 L1659.6 9.54393 L1659.6 34.0924 Z" fill="#000000" fill-rule="nonzero" fill-opacity="1" /><path clip-path="url(#clip610)" d="M1725.67 49.7694 Q1716.64 49.7694 1713.15 51.8354 Q1709.67 53.9013 1709.67 58.8839 Q1709.67 62.8538 1712.26 65.2034 Q1714.9 67.5124 1719.39 67.5124 Q1725.59 67.5124 1729.32 63.1374 Q1733.09 58.7219 1733.09 51.4303 L1733.09 49.7694 L1725.67 49.7694 M1740.54 46.6907 L1740.54 72.576 L1733.09 72.576 L1733.09 65.6895 Q1730.53 69.8214 1726.73 71.8063 Q1722.92 73.7508 1717.41 73.7508 Q1710.44 73.7508 1706.31 69.8619 Q1702.22 65.9325 1702.22 59.3701 Q1702.22 51.7138 1707.32 47.825 Q1712.47 43.9361 1722.63 43.9361 L1733.09 43.9361 L1733.09 43.2069 Q1733.09 38.0623 1729.68 35.2672 Q1726.32 32.4315 1720.2 32.4315 Q1716.31 32.4315 1712.63 33.3632 Q1708.94 34.295 1705.54 36.1584 L1705.54 29.2718 Q1709.63 27.692 1713.48 26.9223 Q1717.33 26.1121 1720.97 26.1121 Q1730.82 26.1121 1735.68 31.2163 Q1740.54 36.3204 1740.54 46.6907 Z" fill="#000000" fill-rule="nonzero" fill-opacity="1" /><path clip-path="url(#clip610)" d="M1755.89 9.54393 L1763.35 9.54393 L1763.35 72.576 L1755.89 72.576 L1755.89 9.54393 Z" fill="#000000" fill-rule="nonzero" fill-opacity="1" /><path clip-path="url(#clip610)" d="M1799.56 49.7694 Q1790.53 49.7694 1787.04 51.8354 Q1783.56 53.9013 1783.56 58.8839 Q1783.56 62.8538 1786.15 65.2034 Q1788.79 67.5124 1793.28 67.5124 Q1799.48 67.5124 1803.21 63.1374 Q1806.97 58.7219 1806.97 51.4303 L1806.97 49.7694 L1799.56 49.7694 M1814.43 46.6907 L1814.43 72.576 L1806.97 72.576 L1806.97 65.6895 Q1804.42 69.8214 1800.61 71.8063 Q1796.81 73.7508 1791.3 73.7508 Q1784.33 73.7508 1780.2 69.8619 Q1776.11 65.9325 1776.11 59.3701 Q1776.11 51.7138 1781.21 47.825 Q1786.35 43.9361 1796.52 43.9361 L1806.97 43.9361 L1806.97 43.2069 Q1806.97 38.0623 1803.57 35.2672 Q1800.21 32.4315 1794.09 32.4315 Q1790.2 32.4315 1786.52 33.3632 Q1782.83 34.295 1779.43 36.1584 L1779.43 29.2718 Q1783.52 27.692 1787.37 26.9223 Q1791.22 26.1121 1794.86 26.1121 Q1804.71 26.1121 1809.57 31.2163 Q1814.43 36.3204 1814.43 46.6907 Z" fill="#000000" fill-rule="nonzero" fill-opacity="1" /><path clip-path="url(#clip610)" d="M1867.49 45.1919 L1867.49 72.576 L1860.04 72.576 L1860.04 45.4349 Q1860.04 38.994 1857.53 35.7938 Q1855.02 32.5936 1849.99 32.5936 Q1843.96 32.5936 1840.47 36.4419 Q1836.99 40.2903 1836.99 46.9338 L1836.99 72.576 L1829.5 72.576 L1829.5 27.2059 L1836.99 27.2059 L1836.99 34.2544 Q1839.66 30.163 1843.27 28.1376 Q1846.92 26.1121 1851.66 26.1121 Q1859.47 26.1121 1863.48 30.9732 Q1867.49 35.7938 1867.49 45.1919 Z" fill="#000000" fill-rule="nonzero" fill-opacity="1" /><path clip-path="url(#clip610)" d="M1915.01 28.9478 L1915.01 35.9153 Q1911.85 34.1734 1908.65 33.3227 Q1905.49 32.4315 1902.25 32.4315 Q1895 32.4315 1890.99 37.0496 Q1886.98 41.6271 1886.98 49.9314 Q1886.98 58.2358 1890.99 62.8538 Q1895 67.4314 1902.25 67.4314 Q1905.49 67.4314 1908.65 66.5807 Q1911.85 65.6895 1915.01 63.9476 L1915.01 70.8341 Q1911.89 72.2924 1908.53 73.0216 Q1905.21 73.7508 1901.44 73.7508 Q1891.19 73.7508 1885.16 67.3098 Q1879.12 60.8689 1879.12 49.9314 Q1879.12 38.832 1885.2 32.472 Q1891.31 26.1121 1901.93 26.1121 Q1905.37 26.1121 1908.65 26.8413 Q1911.93 27.5299 1915.01 28.9478 Z" fill="#000000" fill-rule="nonzero" fill-opacity="1" /><path clip-path="url(#clip610)" d="M1966.78 48.0275 L1966.78 51.6733 L1932.51 51.6733 Q1933 59.3701 1937.13 63.421 Q1941.3 67.4314 1948.71 67.4314 Q1953.01 67.4314 1957.02 66.3781 Q1961.07 65.3249 1965.04 63.2184 L1965.04 70.267 Q1961.03 71.9684 1956.82 72.8596 Q1952.6 73.7508 1948.27 73.7508 Q1937.41 73.7508 1931.05 67.4314 Q1924.73 61.1119 1924.73 50.3365 Q1924.73 39.1965 1930.73 32.6746 Q1936.76 26.1121 1946.97 26.1121 Q1956.13 26.1121 1961.43 32.0264 Q1966.78 37.9003 1966.78 48.0275 M1959.33 45.84 Q1959.25 39.7232 1955.89 36.0774 Q1952.56 32.4315 1947.05 32.4315 Q1940.82 32.4315 1937.05 35.9558 Q1933.32 39.4801 1932.75 45.8805 L1959.33 45.84 Z" fill="#000000" fill-rule="nonzero" fill-opacity="1" /><polyline clip-path="url(#clip612)" style="stroke:#009af9; stroke-linecap:round; stroke-linejoin:round; stroke-width:8; stroke-opacity:1; fill:none" points="279.759,1140.3 1286.07,1171.07 2292.38,1236.65 "/>
<polyline clip-path="url(#clip612)" style="stroke:#e26f46; stroke-linecap:round; stroke-linejoin:round; stroke-width:8; stroke-opacity:1; fill:none" points="279.759,1358.61 1286.07,1358.61 2292.38,1369.83 "/>
<polyline clip-path="url(#clip612)" style="stroke:#3da44d; stroke-linecap:round; stroke-linejoin:round; stroke-width:8; stroke-opacity:1; fill:none" points="279.759,515.876 1286.07,403.372 2292.38,408.313 "/>
<polyline clip-path="url(#clip612)" style="stroke:#c271d2; stroke-linecap:round; stroke-linejoin:round; stroke-width:8; stroke-opacity:1; fill:none" points="279.759,1386.4 1286.07,1386.4 2292.38,1386.4 "/>
<polyline clip-path="url(#clip612)" style="stroke:#ac8d18; stroke-linecap:round; stroke-linejoin:round; stroke-width:8; stroke-opacity:1; fill:none" points="279.759,1386.4 1286.07,1386.4 2292.38,1386.4 "/>
<polyline clip-path="url(#clip612)" style="stroke:#00a9ad; stroke-linecap:round; stroke-linejoin:round; stroke-width:8; stroke-opacity:1; fill:none" points="279.759,241.999 1286.07,160.256 2292.38,241.999 "/>
<path clip-path="url(#clip610)" d="M290.493 529.676 L806.074 529.676 L806.074 166.796 L290.493 166.796  Z" fill="#ffffff" fill-rule="evenodd" fill-opacity="1"/>
<polyline clip-path="url(#clip610)" style="stroke:#000000; stroke-linecap:round; stroke-linejoin:round; stroke-width:4; stroke-opacity:1; fill:none" points="290.493,529.676 806.074,529.676 806.074,166.796 290.493,166.796 290.493,529.676 "/>
<polyline clip-path="url(#clip610)" style="stroke:#009af9; stroke-linecap:round; stroke-linejoin:round; stroke-width:8; stroke-opacity:1; fill:none" points="314.197,218.636 456.422,218.636 "/>
<path clip-path="url(#clip610)" d="M498.552 210.754 L498.552 214.782 Q496.746 213.856 494.802 213.393 Q492.857 212.93 490.774 212.93 Q487.603 212.93 486.006 213.902 Q484.432 214.874 484.432 216.819 Q484.432 218.3 485.566 219.157 Q486.7 219.99 490.126 220.754 L491.584 221.078 Q496.121 222.05 498.02 223.832 Q499.941 225.592 499.941 228.763 Q499.941 232.374 497.07 234.481 Q494.223 236.587 489.223 236.587 Q487.14 236.587 484.871 236.17 Q482.626 235.777 480.126 234.967 L480.126 230.569 Q482.487 231.795 484.779 232.42 Q487.07 233.022 489.316 233.022 Q492.325 233.022 493.945 232.004 Q495.566 230.962 495.566 229.087 Q495.566 227.351 494.385 226.425 Q493.228 225.499 489.27 224.643 L487.788 224.295 Q483.83 223.462 482.071 221.749 Q480.311 220.013 480.311 217.004 Q480.311 213.346 482.904 211.356 Q485.496 209.365 490.265 209.365 Q492.626 209.365 494.709 209.712 Q496.793 210.059 498.552 210.754 Z" fill="#000000" fill-rule="nonzero" fill-opacity="1" /><path clip-path="url(#clip610)" d="M516.769 212.976 Q513.343 212.976 511.353 215.661 Q509.362 218.323 509.362 222.976 Q509.362 227.629 511.33 230.314 Q513.32 232.976 516.769 232.976 Q520.172 232.976 522.163 230.291 Q524.154 227.606 524.154 222.976 Q524.154 218.37 522.163 215.684 Q520.172 212.976 516.769 212.976 M516.769 209.365 Q522.325 209.365 525.496 212.976 Q528.667 216.587 528.667 222.976 Q528.667 229.342 525.496 232.976 Q522.325 236.587 516.769 236.587 Q511.191 236.587 508.019 232.976 Q504.871 229.342 504.871 222.976 Q504.871 216.587 508.019 212.976 Q511.191 209.365 516.769 209.365 Z" fill="#000000" fill-rule="nonzero" fill-opacity="1" /><path clip-path="url(#clip610)" d="M535.728 199.897 L539.987 199.897 L539.987 235.916 L535.728 235.916 L535.728 199.897 Z" fill="#000000" fill-rule="nonzero" fill-opacity="1" /><path clip-path="url(#clip610)" d="M560.681 222.883 Q555.519 222.883 553.528 224.064 Q551.538 225.244 551.538 228.092 Q551.538 230.36 553.019 231.703 Q554.524 233.022 557.093 233.022 Q560.635 233.022 562.765 230.522 Q564.917 227.999 564.917 223.832 L564.917 222.883 L560.681 222.883 M569.177 221.124 L569.177 235.916 L564.917 235.916 L564.917 231.981 Q563.459 234.342 561.283 235.476 Q559.107 236.587 555.959 236.587 Q551.978 236.587 549.616 234.365 Q547.279 232.119 547.279 228.369 Q547.279 223.994 550.195 221.772 Q553.135 219.55 558.945 219.55 L564.917 219.55 L564.917 219.133 Q564.917 216.194 562.973 214.596 Q561.052 212.976 557.556 212.976 Q555.334 212.976 553.228 213.508 Q551.121 214.041 549.177 215.106 L549.177 211.17 Q551.515 210.268 553.714 209.828 Q555.913 209.365 557.996 209.365 Q563.621 209.365 566.399 212.282 Q569.177 215.198 569.177 221.124 Z" fill="#000000" fill-rule="nonzero" fill-opacity="1" /><path clip-path="url(#clip610)" d="M592.973 213.971 Q592.255 213.555 591.399 213.37 Q590.565 213.161 589.547 213.161 Q585.936 213.161 583.991 215.522 Q582.07 217.86 582.07 222.258 L582.07 235.916 L577.788 235.916 L577.788 209.99 L582.07 209.99 L582.07 214.018 Q583.413 211.657 585.565 210.522 Q587.718 209.365 590.797 209.365 Q591.237 209.365 591.769 209.434 Q592.301 209.481 592.95 209.596 L592.973 213.971 Z" fill="#000000" fill-rule="nonzero" fill-opacity="1" /><path clip-path="url(#clip610)" d="M631.121 222.976 Q631.121 218.277 629.176 215.615 Q627.255 212.93 623.875 212.93 Q620.496 212.93 618.551 215.615 Q616.63 218.277 616.63 222.976 Q616.63 227.675 618.551 230.36 Q620.496 233.022 623.875 233.022 Q627.255 233.022 629.176 230.36 Q631.121 227.675 631.121 222.976 M616.63 213.925 Q617.973 211.61 620.01 210.499 Q622.07 209.365 624.917 209.365 Q629.639 209.365 632.579 213.115 Q635.542 216.865 635.542 222.976 Q635.542 229.087 632.579 232.837 Q629.639 236.587 624.917 236.587 Q622.07 236.587 620.01 235.476 Q617.973 234.342 616.63 232.027 L616.63 235.916 L612.348 235.916 L612.348 199.897 L616.63 199.897 L616.63 213.925 Z" fill="#000000" fill-rule="nonzero" fill-opacity="1" /><path clip-path="url(#clip610)" d="M642.162 225.684 L642.162 209.99 L646.421 209.99 L646.421 225.522 Q646.421 229.203 647.857 231.055 Q649.292 232.883 652.162 232.883 Q655.611 232.883 657.602 230.684 Q659.616 228.485 659.616 224.689 L659.616 209.99 L663.875 209.99 L663.875 235.916 L659.616 235.916 L659.616 231.934 Q658.065 234.295 656.005 235.453 Q653.968 236.587 651.259 236.587 Q646.792 236.587 644.477 233.809 Q642.162 231.031 642.162 225.684 M652.88 209.365 L652.88 209.365 Z" fill="#000000" fill-rule="nonzero" fill-opacity="1" /><path clip-path="url(#clip610)" d="M689.176 210.754 L689.176 214.782 Q687.37 213.856 685.426 213.393 Q683.481 212.93 681.398 212.93 Q678.227 212.93 676.63 213.902 Q675.056 214.874 675.056 216.819 Q675.056 218.3 676.19 219.157 Q677.324 219.99 680.75 220.754 L682.208 221.078 Q686.745 222.05 688.643 223.832 Q690.565 225.592 690.565 228.763 Q690.565 232.374 687.694 234.481 Q684.847 236.587 679.847 236.587 Q677.764 236.587 675.495 236.17 Q673.25 235.777 670.75 234.967 L670.75 230.569 Q673.111 231.795 675.403 232.42 Q677.694 233.022 679.94 233.022 Q682.949 233.022 684.569 232.004 Q686.19 230.962 686.19 229.087 Q686.19 227.351 685.009 226.425 Q683.852 225.499 679.894 224.643 L678.412 224.295 Q674.454 223.462 672.694 221.749 Q670.935 220.013 670.935 217.004 Q670.935 213.346 673.528 211.356 Q676.12 209.365 680.889 209.365 Q683.25 209.365 685.333 209.712 Q687.417 210.059 689.176 210.754 Z" fill="#000000" fill-rule="nonzero" fill-opacity="1" /><polyline clip-path="url(#clip610)" style="stroke:#e26f46; stroke-linecap:round; stroke-linejoin:round; stroke-width:8; stroke-opacity:1; fill:none" points="314.197,270.476 456.422,270.476 "/>
<path clip-path="url(#clip610)" d="M480.126 261.83 L484.385 261.83 L489.709 282.061 L495.01 261.83 L500.033 261.83 L505.357 282.061 L510.658 261.83 L514.918 261.83 L508.135 287.756 L503.112 287.756 L497.533 266.506 L491.932 287.756 L486.908 287.756 L480.126 261.83 Z" fill="#000000" fill-rule="nonzero" fill-opacity="1" /><path clip-path="url(#clip610)" d="M521.376 261.83 L525.635 261.83 L525.635 287.756 L521.376 287.756 L521.376 261.83 M521.376 251.737 L525.635 251.737 L525.635 257.131 L521.376 257.131 L521.376 251.737 Z" fill="#000000" fill-rule="nonzero" fill-opacity="1" /><path clip-path="url(#clip610)" d="M556.098 272.108 L556.098 287.756 L551.839 287.756 L551.839 272.247 Q551.839 268.566 550.403 266.737 Q548.968 264.909 546.098 264.909 Q542.649 264.909 540.658 267.108 Q538.667 269.307 538.667 273.103 L538.667 287.756 L534.385 287.756 L534.385 261.83 L538.667 261.83 L538.667 265.858 Q540.195 263.52 542.255 262.362 Q544.339 261.205 547.047 261.205 Q551.515 261.205 553.806 263.983 Q556.098 266.737 556.098 272.108 Z" fill="#000000" fill-rule="nonzero" fill-opacity="1" /><path clip-path="url(#clip610)" d="M581.653 265.765 L581.653 251.737 L585.913 251.737 L585.913 287.756 L581.653 287.756 L581.653 283.867 Q580.311 286.182 578.251 287.316 Q576.214 288.427 573.343 288.427 Q568.644 288.427 565.681 284.677 Q562.741 280.927 562.741 274.816 Q562.741 268.705 565.681 264.955 Q568.644 261.205 573.343 261.205 Q576.214 261.205 578.251 262.339 Q580.311 263.45 581.653 265.765 M567.14 274.816 Q567.14 279.515 569.061 282.2 Q571.005 284.862 574.385 284.862 Q577.764 284.862 579.709 282.2 Q581.653 279.515 581.653 274.816 Q581.653 270.117 579.709 267.455 Q577.764 264.77 574.385 264.77 Q571.005 264.77 569.061 267.455 Q567.14 270.117 567.14 274.816 Z" fill="#000000" fill-rule="nonzero" fill-opacity="1" /><path clip-path="url(#clip610)" d="M628.366 274.816 Q628.366 270.117 626.422 267.455 Q624.5 264.77 621.121 264.77 Q617.741 264.77 615.797 267.455 Q613.875 270.117 613.875 274.816 Q613.875 279.515 615.797 282.2 Q617.741 284.862 621.121 284.862 Q624.5 284.862 626.422 282.2 Q628.366 279.515 628.366 274.816 M613.875 265.765 Q615.218 263.45 617.255 262.339 Q619.315 261.205 622.162 261.205 Q626.885 261.205 629.824 264.955 Q632.787 268.705 632.787 274.816 Q632.787 280.927 629.824 284.677 Q626.885 288.427 622.162 288.427 Q619.315 288.427 617.255 287.316 Q615.218 286.182 613.875 283.867 L613.875 287.756 L609.593 287.756 L609.593 251.737 L613.875 251.737 L613.875 265.765 Z" fill="#000000" fill-rule="nonzero" fill-opacity="1" /><path clip-path="url(#clip610)" d="M639.408 277.524 L639.408 261.83 L643.667 261.83 L643.667 277.362 Q643.667 281.043 645.102 282.895 Q646.537 284.723 649.408 284.723 Q652.857 284.723 654.847 282.524 Q656.861 280.325 656.861 276.529 L656.861 261.83 L661.12 261.83 L661.12 287.756 L656.861 287.756 L656.861 283.774 Q655.31 286.135 653.25 287.293 Q651.213 288.427 648.505 288.427 Q644.037 288.427 641.722 285.649 Q639.408 282.871 639.408 277.524 M650.125 261.205 L650.125 261.205 Z" fill="#000000" fill-rule="nonzero" fill-opacity="1" /><path clip-path="url(#clip610)" d="M686.421 262.594 L686.421 266.622 Q684.616 265.696 682.671 265.233 Q680.727 264.77 678.644 264.77 Q675.472 264.77 673.875 265.742 Q672.301 266.714 672.301 268.659 Q672.301 270.14 673.435 270.997 Q674.569 271.83 677.995 272.594 L679.454 272.918 Q683.991 273.89 685.889 275.672 Q687.81 277.432 687.81 280.603 Q687.81 284.214 684.94 286.321 Q682.093 288.427 677.093 288.427 Q675.009 288.427 672.741 288.01 Q670.495 287.617 667.995 286.807 L667.995 282.409 Q670.357 283.635 672.648 284.26 Q674.94 284.862 677.185 284.862 Q680.194 284.862 681.815 283.844 Q683.435 282.802 683.435 280.927 Q683.435 279.191 682.255 278.265 Q681.097 277.339 677.139 276.483 L675.657 276.135 Q671.699 275.302 669.94 273.589 Q668.181 271.853 668.181 268.844 Q668.181 265.186 670.773 263.196 Q673.366 261.205 678.134 261.205 Q680.495 261.205 682.579 261.552 Q684.662 261.899 686.421 262.594 Z" fill="#000000" fill-rule="nonzero" fill-opacity="1" /><polyline clip-path="url(#clip610)" style="stroke:#3da44d; stroke-linecap:round; stroke-linejoin:round; stroke-width:8; stroke-opacity:1; fill:none" points="314.197,322.316 456.422,322.316 "/>
<path clip-path="url(#clip610)" d="M480.126 313.67 L484.385 313.67 L489.709 333.901 L495.01 313.67 L500.033 313.67 L505.357 333.901 L510.658 313.67 L514.918 313.67 L508.135 339.596 L503.112 339.596 L497.533 318.346 L491.932 339.596 L486.908 339.596 L480.126 313.67 Z" fill="#000000" fill-rule="nonzero" fill-opacity="1" /><path clip-path="url(#clip610)" d="M533.158 326.563 Q527.996 326.563 526.005 327.744 Q524.015 328.924 524.015 331.772 Q524.015 334.04 525.496 335.383 Q527.001 336.702 529.57 336.702 Q533.112 336.702 535.242 334.202 Q537.394 331.679 537.394 327.512 L537.394 326.563 L533.158 326.563 M541.654 324.804 L541.654 339.596 L537.394 339.596 L537.394 335.661 Q535.936 338.022 533.76 339.156 Q531.584 340.267 528.436 340.267 Q524.455 340.267 522.093 338.045 Q519.755 335.799 519.755 332.049 Q519.755 327.674 522.672 325.452 Q525.612 323.23 531.422 323.23 L537.394 323.23 L537.394 322.813 Q537.394 319.874 535.45 318.276 Q533.529 316.656 530.033 316.656 Q527.811 316.656 525.705 317.188 Q523.598 317.721 521.654 318.786 L521.654 314.85 Q523.992 313.948 526.191 313.508 Q528.39 313.045 530.473 313.045 Q536.098 313.045 538.876 315.962 Q541.654 318.878 541.654 324.804 Z" fill="#000000" fill-rule="nonzero" fill-opacity="1" /><path clip-path="url(#clip610)" d="M547.371 313.67 L551.885 313.67 L559.987 335.429 L568.089 313.67 L572.602 313.67 L562.88 339.596 L557.093 339.596 L547.371 313.67 Z" fill="#000000" fill-rule="nonzero" fill-opacity="1" /><path clip-path="url(#clip610)" d="M600.658 325.568 L600.658 327.651 L581.075 327.651 Q581.352 332.049 583.713 334.364 Q586.098 336.656 590.334 336.656 Q592.788 336.656 595.079 336.054 Q597.394 335.452 599.662 334.249 L599.662 338.276 Q597.371 339.248 594.963 339.758 Q592.556 340.267 590.079 340.267 Q583.876 340.267 580.241 336.656 Q576.63 333.045 576.63 326.887 Q576.63 320.522 580.056 316.795 Q583.505 313.045 589.338 313.045 Q594.57 313.045 597.602 316.425 Q600.658 319.781 600.658 325.568 M596.399 324.318 Q596.352 320.823 594.431 318.739 Q592.533 316.656 589.385 316.656 Q585.82 316.656 583.667 318.67 Q581.538 320.684 581.214 324.341 L596.399 324.318 Z" fill="#000000" fill-rule="nonzero" fill-opacity="1" /><path clip-path="url(#clip610)" d="M641.329 326.656 Q641.329 321.957 639.384 319.295 Q637.463 316.61 634.084 316.61 Q630.704 316.61 628.76 319.295 Q626.838 321.957 626.838 326.656 Q626.838 331.355 628.76 334.04 Q630.704 336.702 634.084 336.702 Q637.463 336.702 639.384 334.04 Q641.329 331.355 641.329 326.656 M626.838 317.605 Q628.181 315.29 630.218 314.179 Q632.278 313.045 635.125 313.045 Q639.847 313.045 642.787 316.795 Q645.75 320.545 645.75 326.656 Q645.75 332.767 642.787 336.517 Q639.847 340.267 635.125 340.267 Q632.278 340.267 630.218 339.156 Q628.181 338.022 626.838 335.707 L626.838 339.596 L622.556 339.596 L622.556 303.577 L626.838 303.577 L626.838 317.605 Z" fill="#000000" fill-rule="nonzero" fill-opacity="1" /><path clip-path="url(#clip610)" d="M652.371 329.364 L652.371 313.67 L656.63 313.67 L656.63 329.202 Q656.63 332.883 658.065 334.735 Q659.5 336.563 662.37 336.563 Q665.82 336.563 667.81 334.364 Q669.824 332.165 669.824 328.369 L669.824 313.67 L674.083 313.67 L674.083 339.596 L669.824 339.596 L669.824 335.614 Q668.273 337.975 666.213 339.133 Q664.176 340.267 661.468 340.267 Q657 340.267 654.685 337.489 Q652.371 334.711 652.371 329.364 M663.088 313.045 L663.088 313.045 Z" fill="#000000" fill-rule="nonzero" fill-opacity="1" /><path clip-path="url(#clip610)" d="M699.384 314.434 L699.384 318.462 Q697.579 317.536 695.634 317.073 Q693.69 316.61 691.606 316.61 Q688.435 316.61 686.838 317.582 Q685.264 318.554 685.264 320.499 Q685.264 321.98 686.398 322.837 Q687.532 323.67 690.958 324.434 L692.417 324.758 Q696.954 325.73 698.852 327.512 Q700.773 329.272 700.773 332.443 Q700.773 336.054 697.903 338.161 Q695.055 340.267 690.056 340.267 Q687.972 340.267 685.704 339.85 Q683.458 339.457 680.958 338.647 L680.958 334.249 Q683.319 335.475 685.611 336.1 Q687.903 336.702 690.148 336.702 Q693.157 336.702 694.778 335.684 Q696.398 334.642 696.398 332.767 Q696.398 331.031 695.218 330.105 Q694.06 329.179 690.102 328.323 L688.62 327.975 Q684.662 327.142 682.903 325.429 Q681.144 323.693 681.144 320.684 Q681.144 317.026 683.736 315.036 Q686.329 313.045 691.097 313.045 Q693.458 313.045 695.542 313.392 Q697.625 313.739 699.384 314.434 Z" fill="#000000" fill-rule="nonzero" fill-opacity="1" /><polyline clip-path="url(#clip610)" style="stroke:#c271d2; stroke-linecap:round; stroke-linejoin:round; stroke-width:8; stroke-opacity:1; fill:none" points="314.197,374.156 456.422,374.156 "/>
<path clip-path="url(#clip610)" d="M501.839 375.788 L501.839 391.436 L497.58 391.436 L497.58 375.927 Q497.58 372.246 496.145 370.417 Q494.709 368.589 491.839 368.589 Q488.39 368.589 486.399 370.788 Q484.408 372.987 484.408 376.783 L484.408 391.436 L480.126 391.436 L480.126 355.417 L484.408 355.417 L484.408 369.538 Q485.936 367.2 487.996 366.042 Q490.08 364.885 492.788 364.885 Q497.256 364.885 499.547 367.663 Q501.839 370.417 501.839 375.788 Z" fill="#000000" fill-rule="nonzero" fill-opacity="1" /><path clip-path="url(#clip610)" d="M521.121 393.843 Q519.316 398.473 517.603 399.885 Q515.89 401.297 513.019 401.297 L509.617 401.297 L509.617 397.732 L512.117 397.732 Q513.876 397.732 514.848 396.899 Q515.82 396.065 517.001 392.963 L517.765 391.019 L507.279 365.51 L511.793 365.51 L519.894 385.788 L527.996 365.51 L532.51 365.51 L521.121 393.843 Z" fill="#000000" fill-rule="nonzero" fill-opacity="1" /><path clip-path="url(#clip610)" d="M555.45 369.445 L555.45 355.417 L559.709 355.417 L559.709 391.436 L555.45 391.436 L555.45 387.547 Q554.107 389.862 552.047 390.996 Q550.01 392.107 547.14 392.107 Q542.441 392.107 539.478 388.357 Q536.538 384.607 536.538 378.496 Q536.538 372.385 539.478 368.635 Q542.441 364.885 547.14 364.885 Q550.01 364.885 552.047 366.019 Q554.107 367.13 555.45 369.445 M540.936 378.496 Q540.936 383.195 542.857 385.88 Q544.802 388.542 548.181 388.542 Q551.561 388.542 553.505 385.88 Q555.45 383.195 555.45 378.496 Q555.45 373.797 553.505 371.135 Q551.561 368.45 548.181 368.45 Q544.802 368.45 542.857 371.135 Q540.936 373.797 540.936 378.496 Z" fill="#000000" fill-rule="nonzero" fill-opacity="1" /><path clip-path="url(#clip610)" d="M583.505 369.491 Q582.788 369.075 581.931 368.89 Q581.098 368.681 580.079 368.681 Q576.468 368.681 574.524 371.042 Q572.602 373.38 572.602 377.778 L572.602 391.436 L568.32 391.436 L568.32 365.51 L572.602 365.51 L572.602 369.538 Q573.945 367.177 576.098 366.042 Q578.251 364.885 581.329 364.885 Q581.769 364.885 582.301 364.954 Q582.834 365.001 583.482 365.116 L583.505 369.491 Z" fill="#000000" fill-rule="nonzero" fill-opacity="1" /><path clip-path="url(#clip610)" d="M596.977 368.496 Q593.551 368.496 591.561 371.181 Q589.57 373.843 589.57 378.496 Q589.57 383.149 591.538 385.834 Q593.528 388.496 596.977 388.496 Q600.38 388.496 602.371 385.811 Q604.362 383.126 604.362 378.496 Q604.362 373.89 602.371 371.204 Q600.38 368.496 596.977 368.496 M596.977 364.885 Q602.533 364.885 605.704 368.496 Q608.875 372.107 608.875 378.496 Q608.875 384.862 605.704 388.496 Q602.533 392.107 596.977 392.107 Q591.399 392.107 588.227 388.496 Q585.079 384.862 585.079 378.496 Q585.079 372.107 588.227 368.496 Q591.399 364.885 596.977 364.885 Z" fill="#000000" fill-rule="nonzero" fill-opacity="1" /><path clip-path="url(#clip610)" d="M649.616 378.496 Q649.616 373.797 647.671 371.135 Q645.75 368.45 642.371 368.45 Q638.991 368.45 637.047 371.135 Q635.125 373.797 635.125 378.496 Q635.125 383.195 637.047 385.88 Q638.991 388.542 642.371 388.542 Q645.75 388.542 647.671 385.88 Q649.616 383.195 649.616 378.496 M635.125 369.445 Q636.468 367.13 638.505 366.019 Q640.565 364.885 643.412 364.885 Q648.134 364.885 651.074 368.635 Q654.037 372.385 654.037 378.496 Q654.037 384.607 651.074 388.357 Q648.134 392.107 643.412 392.107 Q640.565 392.107 638.505 390.996 Q636.468 389.862 635.125 387.547 L635.125 391.436 L630.843 391.436 L630.843 355.417 L635.125 355.417 L635.125 369.445 Z" fill="#000000" fill-rule="nonzero" fill-opacity="1" /><path clip-path="url(#clip610)" d="M660.658 381.204 L660.658 365.51 L664.917 365.51 L664.917 381.042 Q664.917 384.723 666.352 386.575 Q667.787 388.403 670.657 388.403 Q674.107 388.403 676.097 386.204 Q678.111 384.005 678.111 380.209 L678.111 365.51 L682.37 365.51 L682.37 391.436 L678.111 391.436 L678.111 387.454 Q676.56 389.815 674.5 390.973 Q672.463 392.107 669.755 392.107 Q665.287 392.107 662.972 389.329 Q660.658 386.551 660.658 381.204 M671.375 364.885 L671.375 364.885 Z" fill="#000000" fill-rule="nonzero" fill-opacity="1" /><path clip-path="url(#clip610)" d="M707.671 366.274 L707.671 370.302 Q705.866 369.376 703.921 368.913 Q701.977 368.45 699.893 368.45 Q696.722 368.45 695.125 369.422 Q693.551 370.394 693.551 372.339 Q693.551 373.82 694.685 374.677 Q695.819 375.51 699.245 376.274 L700.704 376.598 Q705.241 377.57 707.139 379.352 Q709.06 381.112 709.06 384.283 Q709.06 387.894 706.19 390.001 Q703.342 392.107 698.343 392.107 Q696.259 392.107 693.991 391.69 Q691.745 391.297 689.245 390.487 L689.245 386.089 Q691.606 387.315 693.898 387.94 Q696.19 388.542 698.435 388.542 Q701.444 388.542 703.065 387.524 Q704.685 386.482 704.685 384.607 Q704.685 382.871 703.505 381.945 Q702.347 381.019 698.389 380.163 L696.907 379.815 Q692.949 378.982 691.19 377.269 Q689.431 375.533 689.431 372.524 Q689.431 368.866 692.023 366.876 Q694.616 364.885 699.384 364.885 Q701.745 364.885 703.829 365.232 Q705.912 365.579 707.671 366.274 Z" fill="#000000" fill-rule="nonzero" fill-opacity="1" /><polyline clip-path="url(#clip610)" style="stroke:#ac8d18; stroke-linecap:round; stroke-linejoin:round; stroke-width:8; stroke-opacity:1; fill:none" points="314.197,425.996 456.422,425.996 "/>
<path clip-path="url(#clip610)" d="M498.899 430.336 Q498.899 425.637 496.955 422.975 Q495.033 420.29 491.654 420.29 Q488.274 420.29 486.33 422.975 Q484.408 425.637 484.408 430.336 Q484.408 435.035 486.33 437.72 Q488.274 440.382 491.654 440.382 Q495.033 440.382 496.955 437.72 Q498.899 435.035 498.899 430.336 M484.408 421.285 Q485.751 418.97 487.788 417.859 Q489.848 416.725 492.695 416.725 Q497.418 416.725 500.357 420.475 Q503.32 424.225 503.32 430.336 Q503.32 436.447 500.357 440.197 Q497.418 443.947 492.695 443.947 Q489.848 443.947 487.788 442.836 Q485.751 441.702 484.408 439.387 L484.408 443.276 L480.126 443.276 L480.126 407.257 L484.408 407.257 L484.408 421.285 Z" fill="#000000" fill-rule="nonzero" fill-opacity="1" /><path clip-path="url(#clip610)" d="M522.163 430.243 Q517.001 430.243 515.01 431.424 Q513.019 432.604 513.019 435.452 Q513.019 437.72 514.501 439.063 Q516.006 440.382 518.575 440.382 Q522.117 440.382 524.246 437.882 Q526.399 435.359 526.399 431.192 L526.399 430.243 L522.163 430.243 M530.658 428.484 L530.658 443.276 L526.399 443.276 L526.399 439.341 Q524.941 441.702 522.765 442.836 Q520.589 443.947 517.441 443.947 Q513.459 443.947 511.098 441.725 Q508.76 439.479 508.76 435.729 Q508.76 431.354 511.677 429.132 Q514.617 426.91 520.427 426.91 L526.399 426.91 L526.399 426.493 Q526.399 423.554 524.455 421.956 Q522.533 420.336 519.038 420.336 Q516.816 420.336 514.709 420.868 Q512.603 421.401 510.658 422.466 L510.658 418.53 Q512.996 417.628 515.195 417.188 Q517.394 416.725 519.478 416.725 Q525.103 416.725 527.88 419.642 Q530.658 422.558 530.658 428.484 Z" fill="#000000" fill-rule="nonzero" fill-opacity="1" /><path clip-path="url(#clip610)" d="M543.644 409.989 L543.644 417.35 L552.417 417.35 L552.417 420.66 L543.644 420.66 L543.644 434.734 Q543.644 437.905 544.501 438.808 Q545.38 439.711 548.042 439.711 L552.417 439.711 L552.417 443.276 L548.042 443.276 Q543.112 443.276 541.237 441.447 Q539.362 439.595 539.362 434.734 L539.362 420.66 L536.237 420.66 L536.237 417.35 L539.362 417.35 L539.362 409.989 L543.644 409.989 Z" fill="#000000" fill-rule="nonzero" fill-opacity="1" /><path clip-path="url(#clip610)" d="M562.232 409.989 L562.232 417.35 L571.005 417.35 L571.005 420.66 L562.232 420.66 L562.232 434.734 Q562.232 437.905 563.089 438.808 Q563.968 439.711 566.63 439.711 L571.005 439.711 L571.005 443.276 L566.63 443.276 Q561.7 443.276 559.825 441.447 Q557.95 439.595 557.95 434.734 L557.95 420.66 L554.825 420.66 L554.825 417.35 L557.95 417.35 L557.95 409.989 L562.232 409.989 Z" fill="#000000" fill-rule="nonzero" fill-opacity="1" /><path clip-path="url(#clip610)" d="M598.783 429.248 L598.783 431.331 L579.2 431.331 Q579.477 435.729 581.839 438.044 Q584.223 440.336 588.459 440.336 Q590.913 440.336 593.204 439.734 Q595.519 439.132 597.787 437.929 L597.787 441.956 Q595.496 442.928 593.088 443.438 Q590.681 443.947 588.204 443.947 Q582.001 443.947 578.366 440.336 Q574.755 436.725 574.755 430.567 Q574.755 424.202 578.181 420.475 Q581.63 416.725 587.463 416.725 Q592.695 416.725 595.727 420.105 Q598.783 423.461 598.783 429.248 M594.524 427.998 Q594.477 424.503 592.556 422.419 Q590.658 420.336 587.51 420.336 Q583.945 420.336 581.792 422.35 Q579.663 424.364 579.339 428.021 L594.524 427.998 Z" fill="#000000" fill-rule="nonzero" fill-opacity="1" /><path clip-path="url(#clip610)" d="M620.797 421.331 Q620.079 420.915 619.223 420.73 Q618.389 420.521 617.371 420.521 Q613.76 420.521 611.815 422.882 Q609.894 425.22 609.894 429.618 L609.894 443.276 L605.612 443.276 L605.612 417.35 L609.894 417.35 L609.894 421.378 Q611.236 419.017 613.389 417.882 Q615.542 416.725 618.621 416.725 Q619.061 416.725 619.593 416.794 Q620.125 416.841 620.773 416.956 L620.797 421.331 Z" fill="#000000" fill-rule="nonzero" fill-opacity="1" /><path clip-path="url(#clip610)" d="M636.051 445.683 Q634.246 450.313 632.533 451.725 Q630.82 453.137 627.949 453.137 L624.547 453.137 L624.547 449.572 L627.047 449.572 Q628.806 449.572 629.778 448.739 Q630.75 447.905 631.931 444.803 L632.695 442.859 L622.209 417.35 L626.723 417.35 L634.824 437.628 L642.926 417.35 L647.44 417.35 L636.051 445.683 Z" fill="#000000" fill-rule="nonzero" fill-opacity="1" /><path clip-path="url(#clip610)" d="M687 430.336 Q687 425.637 685.056 422.975 Q683.134 420.29 679.755 420.29 Q676.375 420.29 674.431 422.975 Q672.509 425.637 672.509 430.336 Q672.509 435.035 674.431 437.72 Q676.375 440.382 679.755 440.382 Q683.134 440.382 685.056 437.72 Q687 435.035 687 430.336 M672.509 421.285 Q673.852 418.97 675.889 417.859 Q677.949 416.725 680.796 416.725 Q685.519 416.725 688.458 420.475 Q691.421 424.225 691.421 430.336 Q691.421 436.447 688.458 440.197 Q685.519 443.947 680.796 443.947 Q677.949 443.947 675.889 442.836 Q673.852 441.702 672.509 439.387 L672.509 443.276 L668.227 443.276 L668.227 407.257 L672.509 407.257 L672.509 421.285 Z" fill="#000000" fill-rule="nonzero" fill-opacity="1" /><path clip-path="url(#clip610)" d="M698.042 433.044 L698.042 417.35 L702.301 417.35 L702.301 432.882 Q702.301 436.563 703.736 438.415 Q705.171 440.243 708.042 440.243 Q711.491 440.243 713.481 438.044 Q715.495 435.845 715.495 432.049 L715.495 417.35 L719.754 417.35 L719.754 443.276 L715.495 443.276 L715.495 439.294 Q713.944 441.655 711.884 442.813 Q709.847 443.947 707.139 443.947 Q702.671 443.947 700.356 441.169 Q698.042 438.391 698.042 433.044 M708.759 416.725 L708.759 416.725 Z" fill="#000000" fill-rule="nonzero" fill-opacity="1" /><path clip-path="url(#clip610)" d="M745.055 418.114 L745.055 422.142 Q743.25 421.216 741.305 420.753 Q739.361 420.29 737.277 420.29 Q734.106 420.29 732.509 421.262 Q730.935 422.234 730.935 424.179 Q730.935 425.66 732.069 426.517 Q733.203 427.35 736.629 428.114 L738.088 428.438 Q742.625 429.41 744.523 431.192 Q746.444 432.952 746.444 436.123 Q746.444 439.734 743.574 441.841 Q740.727 443.947 735.727 443.947 Q733.643 443.947 731.375 443.53 Q729.129 443.137 726.629 442.327 L726.629 437.929 Q728.99 439.155 731.282 439.78 Q733.574 440.382 735.819 440.382 Q738.828 440.382 740.449 439.364 Q742.069 438.322 742.069 436.447 Q742.069 434.711 740.889 433.785 Q739.731 432.859 735.773 432.003 L734.291 431.655 Q730.333 430.822 728.574 429.109 Q726.815 427.373 726.815 424.364 Q726.815 420.706 729.407 418.716 Q732 416.725 736.768 416.725 Q739.129 416.725 741.213 417.072 Q743.296 417.419 745.055 418.114 Z" fill="#000000" fill-rule="nonzero" fill-opacity="1" /><polyline clip-path="url(#clip610)" style="stroke:#00a9ad; stroke-linecap:round; stroke-linejoin:round; stroke-width:8; stroke-opacity:1; fill:none" points="314.197,477.836 456.422,477.836 "/>
<path clip-path="url(#clip610)" d="M480.126 459.097 L484.385 459.097 L484.385 495.116 L480.126 495.116 L480.126 459.097 Z" fill="#000000" fill-rule="nonzero" fill-opacity="1" /><path clip-path="url(#clip610)" d="M503.344 472.176 Q499.918 472.176 497.927 474.861 Q495.936 477.523 495.936 482.176 Q495.936 486.829 497.904 489.514 Q499.894 492.176 503.344 492.176 Q506.746 492.176 508.737 489.491 Q510.728 486.806 510.728 482.176 Q510.728 477.57 508.737 474.884 Q506.746 472.176 503.344 472.176 M503.344 468.565 Q508.899 468.565 512.07 472.176 Q515.242 475.787 515.242 482.176 Q515.242 488.542 512.07 492.176 Q508.899 495.787 503.344 495.787 Q497.765 495.787 494.594 492.176 Q491.445 488.542 491.445 482.176 Q491.445 475.787 494.594 472.176 Q497.765 468.565 503.344 468.565 Z" fill="#000000" fill-rule="nonzero" fill-opacity="1" /><path clip-path="url(#clip610)" d="M534.084 482.083 Q528.922 482.083 526.931 483.264 Q524.941 484.444 524.941 487.292 Q524.941 489.56 526.422 490.903 Q527.927 492.222 530.496 492.222 Q534.038 492.222 536.167 489.722 Q538.32 487.199 538.32 483.032 L538.32 482.083 L534.084 482.083 M542.579 480.324 L542.579 495.116 L538.32 495.116 L538.32 491.181 Q536.862 493.542 534.686 494.676 Q532.51 495.787 529.362 495.787 Q525.38 495.787 523.019 493.565 Q520.681 491.319 520.681 487.569 Q520.681 483.194 523.598 480.972 Q526.538 478.75 532.348 478.75 L538.32 478.75 L538.32 478.333 Q538.32 475.394 536.376 473.796 Q534.454 472.176 530.959 472.176 Q528.737 472.176 526.63 472.708 Q524.524 473.241 522.58 474.306 L522.58 470.37 Q524.918 469.468 527.117 469.028 Q529.316 468.565 531.399 468.565 Q537.024 468.565 539.802 471.482 Q542.579 474.398 542.579 480.324 Z" fill="#000000" fill-rule="nonzero" fill-opacity="1" /><path clip-path="url(#clip610)" d="M568.413 473.125 L568.413 459.097 L572.672 459.097 L572.672 495.116 L568.413 495.116 L568.413 491.227 Q567.07 493.542 565.01 494.676 Q562.973 495.787 560.103 495.787 Q555.403 495.787 552.441 492.037 Q549.501 488.287 549.501 482.176 Q549.501 476.065 552.441 472.315 Q555.403 468.565 560.103 468.565 Q562.973 468.565 565.01 469.699 Q567.07 470.81 568.413 473.125 M553.899 482.176 Q553.899 486.875 555.82 489.56 Q557.765 492.222 561.144 492.222 Q564.524 492.222 566.468 489.56 Q568.413 486.875 568.413 482.176 Q568.413 477.477 566.468 474.815 Q564.524 472.13 561.144 472.13 Q557.765 472.13 555.82 474.815 Q553.899 477.477 553.899 482.176 Z" fill="#000000" fill-rule="nonzero" fill-opacity="1" /><path clip-path="url(#clip610)" d="M613.574 473.125 L613.574 459.097 L617.834 459.097 L617.834 495.116 L613.574 495.116 L613.574 491.227 Q612.232 493.542 610.172 494.676 Q608.135 495.787 605.264 495.787 Q600.565 495.787 597.602 492.037 Q594.663 488.287 594.663 482.176 Q594.663 476.065 597.602 472.315 Q600.565 468.565 605.264 468.565 Q608.135 468.565 610.172 469.699 Q612.232 470.81 613.574 473.125 M599.061 482.176 Q599.061 486.875 600.982 489.56 Q602.926 492.222 606.306 492.222 Q609.686 492.222 611.63 489.56 Q613.574 486.875 613.574 482.176 Q613.574 477.477 611.63 474.815 Q609.686 472.13 606.306 472.13 Q602.926 472.13 600.982 474.815 Q599.061 477.477 599.061 482.176 Z" fill="#000000" fill-rule="nonzero" fill-opacity="1" /><path clip-path="url(#clip610)" d="M648.783 481.088 L648.783 483.171 L629.199 483.171 Q629.477 487.569 631.838 489.884 Q634.222 492.176 638.459 492.176 Q640.912 492.176 643.204 491.574 Q645.519 490.972 647.787 489.769 L647.787 493.796 Q645.496 494.768 643.088 495.278 Q640.681 495.787 638.204 495.787 Q632 495.787 628.366 492.176 Q624.755 488.565 624.755 482.407 Q624.755 476.042 628.181 472.315 Q631.63 468.565 637.463 468.565 Q642.695 468.565 645.727 471.945 Q648.783 475.301 648.783 481.088 M644.523 479.838 Q644.477 476.343 642.556 474.259 Q640.658 472.176 637.509 472.176 Q633.945 472.176 631.792 474.19 Q629.662 476.204 629.338 479.861 L644.523 479.838 Z" fill="#000000" fill-rule="nonzero" fill-opacity="1" /><path clip-path="url(#clip610)" d="M675.958 474.167 Q677.556 471.296 679.778 469.931 Q682 468.565 685.009 468.565 Q689.06 468.565 691.259 471.412 Q693.458 474.236 693.458 479.468 L693.458 495.116 L689.176 495.116 L689.176 479.607 Q689.176 475.88 687.856 474.074 Q686.537 472.269 683.829 472.269 Q680.519 472.269 678.597 474.468 Q676.676 476.667 676.676 480.463 L676.676 495.116 L672.394 495.116 L672.394 479.607 Q672.394 475.857 671.074 474.074 Q669.755 472.269 667 472.269 Q663.736 472.269 661.815 474.491 Q659.894 476.69 659.894 480.463 L659.894 495.116 L655.611 495.116 L655.611 469.19 L659.894 469.19 L659.894 473.218 Q661.352 470.833 663.389 469.699 Q665.426 468.565 668.227 468.565 Q671.051 468.565 673.019 470 Q675.009 471.435 675.958 474.167 Z" fill="#000000" fill-rule="nonzero" fill-opacity="1" /><path clip-path="url(#clip610)" d="M713.736 482.083 Q708.574 482.083 706.583 483.264 Q704.592 484.444 704.592 487.292 Q704.592 489.56 706.074 490.903 Q707.579 492.222 710.148 492.222 Q713.69 492.222 715.819 489.722 Q717.972 487.199 717.972 483.032 L717.972 482.083 L713.736 482.083 M722.231 480.324 L722.231 495.116 L717.972 495.116 L717.972 491.181 Q716.514 493.542 714.338 494.676 Q712.162 495.787 709.014 495.787 Q705.032 495.787 702.671 493.565 Q700.333 491.319 700.333 487.569 Q700.333 483.194 703.25 480.972 Q706.19 478.75 712 478.75 L717.972 478.75 L717.972 478.333 Q717.972 475.394 716.028 473.796 Q714.106 472.176 710.611 472.176 Q708.389 472.176 706.282 472.708 Q704.176 473.241 702.231 474.306 L702.231 470.37 Q704.569 469.468 706.768 469.028 Q708.967 468.565 711.051 468.565 Q716.676 468.565 719.454 471.482 Q722.231 474.398 722.231 480.324 Z" fill="#000000" fill-rule="nonzero" fill-opacity="1" /><path clip-path="url(#clip610)" d="M752.555 479.468 L752.555 495.116 L748.296 495.116 L748.296 479.607 Q748.296 475.926 746.861 474.097 Q745.426 472.269 742.555 472.269 Q739.106 472.269 737.115 474.468 Q735.125 476.667 735.125 480.463 L735.125 495.116 L730.842 495.116 L730.842 469.19 L735.125 469.19 L735.125 473.218 Q736.652 470.88 738.713 469.722 Q740.796 468.565 743.504 468.565 Q747.972 468.565 750.264 471.343 Q752.555 474.097 752.555 479.468 Z" fill="#000000" fill-rule="nonzero" fill-opacity="1" /><path clip-path="url(#clip610)" d="M778.111 473.125 L778.111 459.097 L782.37 459.097 L782.37 495.116 L778.111 495.116 L778.111 491.227 Q776.768 493.542 774.708 494.676 Q772.671 495.787 769.8 495.787 Q765.101 495.787 762.138 492.037 Q759.199 488.287 759.199 482.176 Q759.199 476.065 762.138 472.315 Q765.101 468.565 769.8 468.565 Q772.671 468.565 774.708 469.699 Q776.768 470.81 778.111 473.125 M763.597 482.176 Q763.597 486.875 765.518 489.56 Q767.463 492.222 770.842 492.222 Q774.222 492.222 776.166 489.56 Q778.111 486.875 778.111 482.176 Q778.111 477.477 776.166 474.815 Q774.222 472.13 770.842 472.13 Q767.463 472.13 765.518 474.815 Q763.597 477.477 763.597 482.176 Z" fill="#000000" fill-rule="nonzero" fill-opacity="1" /></svg>
